<svg height="413" viewBox="0 0 969 413" width="969" xmlns="http://www.w3.org/2000/svg"><g fill="none" fill-rule="evenodd"><path d="m0 290h969v123h-969z" fill="#fff"/><path d="m0 327h969v80h-969z" fill="#f3f3f3"/><path d="m0 43h969v217h-969z" fill="#fff"/><path d="m0 85h969v64h-969zm0 68h969v31h-969zm0 37h969v64h-969z" fill="#f3f3f3"/><g transform="translate(0 -1)"><text fill="#606060" font-family="Helvetica" font-size="13"><tspan fill="#000" x="10" y="70">Renderer Process</tspan></text><text fill="#5da5f5" font-family="Helvetica-Bold, Helvetica" font-size="10" font-weight="bold"><tspan fill="#000" x="10" y="105">Compositor Thread</tspan></text><text fill="#5da5f5" font-family="Helvetica-Bold, Helvetica" font-size="10" font-weight="bold"><tspan fill="#000" x="10" y="174">Compositor Tile Worker(s)</tspan></text><text fill="#5da5f5" font-family="Helvetica-Bold, Helvetica" font-size="10" font-weight="bold"><tspan fill="#000" x="10" y="212">Main Thread</tspan></text><text fill="#5da5f5" font-family="Helvetica-Bold, Helvetica" font-size="10" font-weight="bold"><tspan fill="#000" x="10" y="349">GPU Thread</tspan></text><text fill="#606060" font-family="Helvetica" font-size="13"><tspan fill="#000" x="10" y="314">GPU Process</tspan></text></g><path d="m125 94h48v44h-48z" fill="#a3c37d" stroke="#84a859"/><path d="m148 199h69v44h-69z" fill="#f8e799" stroke="#ead46f"/><path d="m183.5 119.5v73.11zm0 73.11 3-10.8h-6zm555 18.89v-71zm0-71-3 10.8h6zm163-16v211.334zm0 211.334 3-10.8h-6z" fill="#282828" stroke="#282828"/><text fill="#5c3817" font-family="Helvetica" font-size="10" transform="translate(0 -1)"><tspan fill="#000" x="158.259" y="218">Input event</tspan></text><text fill="#5c3817" font-family="Helvetica" font-size="10" transform="translate(0 -1)"><tspan fill="#000" x="163.82" y="231">handlers</tspan></text><path d="m219 199h69v44h-69z" fill="#f8e799" stroke="#ead46f"/><text fill="#5c3817" font-family="Helvetica" font-size="10" transform="translate(0 -1)"><tspan fill="#000" x="224.266" y="218">requestAnim-</tspan></text><text fill="#5c3817" font-family="Helvetica" font-size="10" transform="translate(0 -1)"><tspan fill="#000" x="228.712" y="231">ationFrame</tspan></text><path d="m290 199h69v44h-69z" fill="#8ec7f4" stroke="#69b1f5"/><text fill="#fff" font-family="Helvetica" font-size="10" transform="translate(0 -1)"><tspan fill="#000" x="311.938" y="218">Parse</tspan></text><text fill="#fff" font-family="Helvetica" font-size="10" transform="translate(0 -1)"><tspan fill="#000" x="311.389" y="231">HTML</tspan></text><path d="m361 199h69v44h-69z" fill="#b1a7d6" stroke="#9589c6"/><text fill="#fff" font-family="Helvetica" font-size="10" transform="translate(0 -1)"><tspan fill="#000" x="380.217" y="218">Recalc</tspan></text><text fill="#fff" font-family="Helvetica" font-size="10" transform="translate(0 -1)"><tspan fill="#000" x="381.884" y="231">Styles</tspan></text><path d="m432 199h69v44h-69z" fill="#b1a7d6" stroke="#9589c6"/><text fill="#fff" font-family="Helvetica" font-size="10" transform="translate(0 -1)"><tspan fill="#000" x="451.488" y="225">Layout</tspan></text><path d="m503 199h69v44h-69z" fill="#b1a7d6" stroke="#9589c6"/><text fill="#fff" font-family="Helvetica" font-size="10" transform="translate(0 -1)"><tspan fill="#000" x="521.377" y="218">Update</tspan></text><text fill="#fff" font-family="Helvetica" font-size="10" transform="translate(0 -1)"><tspan fill="#000" x="513.594" y="231">Layer Tree</tspan></text><path d="m574 199h69v44h-69z" fill="#a3c37d" stroke="#84a859"/><text fill="#fff" font-family="Helvetica" font-size="10" transform="translate(0 -1)"><tspan fill="#000" x="597.104" y="225">Paint</tspan></text><text fill="#fff" font-family="Helvetica" font-size="10" transform="translate(0 -1)"><tspan fill="#000" x="135.054" y="114">Frame</tspan></text><text fill="#fff" font-family="Helvetica" font-size="10" transform="translate(0 -1)"><tspan fill="#000" x="138.941" y="127">Start</tspan></text><path d="m645 199h69v44h-69z" fill="#a3c37d" stroke="#84a859"/><text fill="#fff" font-family="Helvetica" font-size="10" transform="translate(0 -1)"><tspan fill="#000" x="655.601" y="225">Composite</tspan></text><path d="m705 93h69v44h-69z" fill="#a3c37d" stroke="#84a859"/><text fill="#fff" font-family="Helvetica" font-size="10" transform="translate(0 -1)"><tspan fill="#000" x="724.773" y="114">Raster</tspan></text><text fill="#fff" font-family="Helvetica" font-size="10" transform="translate(0 -1)"><tspan fill="#000" x="715.87" y="127">Scheduled</tspan></text><path d="m764 158h74v22h-74z" fill="#a3c37d" stroke="#84a859"/><text fill="#fff" font-family="Helvetica" font-size="10" transform="translate(0 -1)"><tspan fill="#000" x="778.882" y="173">Rasterize</tspan></text><path d="m827 93h48v44h-48z" fill="#a3c37d" stroke="#84a859"/><text fill="#fff" font-family="Helvetica" font-size="10" transform="translate(0 -1)"><tspan fill="#000" x="837.054" y="113">Frame</tspan></text><text fill="#fff" font-family="Helvetica" font-size="10" transform="translate(0 -1)"><tspan fill="#000" x="842.604" y="126">End</tspan></text><path d="m763 199h111v44h-111z" fill="#f8e799" stroke="#ead46f"/><text fill="#5c3817" font-family="Helvetica" font-size="10" transform="translate(0 -1)"><tspan fill="#000" x="774.086" y="223">requestIdleCallback</tspan></text><path d="m822 344h125v44h-125z" fill="#8ec7f4" stroke="#69b1f5"/><text fill="#fff" font-family="Helvetica" font-size="10" transform="translate(0 -1)"><tspan fill="#000" x="834.688" y="363">Layer tiles uploaded to</tspan></text><text fill="#fff" font-family="Helvetica" font-size="10" transform="translate(0 -1)"><tspan fill="#000" x="836.086" y="376">GPU and composited.</tspan></text><text fill="#606060" font-family="Helvetica" font-size="9" transform="translate(0 -1)"><tspan fill="#000" x="108.222" y="9">vsync and input data</tspan></text><text fill="#606060" font-family="Helvetica" font-size="9" transform="translate(0 -1)"><tspan fill="#000" x="724" y="223">commit</tspan></text><text fill="#606060" font-family="Helvetica" font-size="9" transform="translate(0 -1)"><tspan fill="#000" x="887" y="120">commit</tspan></text><path d="m148.5 17.5v73.11zm0 73.11 3-10.8h-6zm684 54.39v11.5-11.5h-2.5l2.5-6 2.5 6zm-62 5v-11.5 11.5h2.5l-2.5 6-2.5-6z" fill="#282828" stroke="#282828"/><path d="m254.5 279.5v-32.016m0 0-3 10.8h6z" fill="#d0021b" stroke="#d0011b" stroke-linecap="square"/><path d="m467.5 249.5v30m-72-30v30m72.002 0h-212.34" stroke="#d0011b" stroke-linecap="square"/></g></svg>